<svg width="57" height="54" viewBox="0 0 57 54" fill="none" xmlns="http://www.w3.org/2000/svg">
<path d="M40.0909 51V45.6667C40.0909 42.8377 39.114 40.1246 37.375 38.1242C35.636 36.1238 33.2775 35 30.8182 35H12.2727C9.81345 35 7.45489 36.1238 5.71592 38.1242C3.97695 40.1246 3 42.8377 3 45.6667V51" stroke="#850000" stroke-width="5" stroke-linecap="round" stroke-linejoin="round"/>
<path d="M21.5454 24.3333C26.6666 24.3333 30.8182 19.5577 30.8182 13.6667C30.8182 7.77563 26.6666 3 21.5454 3C16.4243 3 12.2727 7.77563 12.2727 13.6667C12.2727 19.5577 16.4243 24.3333 21.5454 24.3333Z" stroke="#850000" stroke-width="5" stroke-linecap="round" stroke-linejoin="round"/>
<path d="M54 51V45.6667C53.9985 43.3033 53.3146 41.0074 52.0559 39.1395C50.7971 37.2716 49.0348 35.9375 47.0455 35.3467" stroke="#850000" stroke-width="5" stroke-linecap="round" stroke-linejoin="round"/>
<path d="M37.7727 3.34668C39.7673 3.93415 41.5352 5.26855 42.7977 7.13951C44.0602 9.01047 44.7455 11.3116 44.7455 13.68C44.7455 16.0485 44.0602 18.3496 42.7977 20.2205C41.5352 22.0915 39.7673 23.4259 37.7727 24.0133" stroke="#850000" stroke-width="5" stroke-linecap="round" stroke-linejoin="round"/>
</svg>
